%FSLAX23Y23*%
%MOMM*%
%SFA1B1*%

%IPPOS*%
%ADD9507C,0.250000*%
%ADD9508C,0.899998*%
%ADD9509C,0.969998*%
%ADD9510C,1.099998*%
%ADD9511C,1.199998*%
%ADD9512C,1.519997*%
%ADD9513C,2.999994*%
%LNevcc_v2-1*%
%LPD*%
G54D9507*
X225999Y195699D03*
X221499Y208999D03*
X229049Y227499D03*
X241899Y178399D03*
X242499Y177800D03*
X241999Y182099D03*
X238099Y177049D03*
X241899Y177800D03*
X242499Y178399D03*
X238499Y181299D03*
X242999Y184499D03*
Y189499D03*
X242199Y195399D03*
X238799Y201799D03*
X241199Y205099D03*
X241499Y212099D03*
X242399Y208099D03*
X239899Y206799D03*
X238399Y208999D03*
X237199D03*
X237799Y208399D03*
X237199Y212599D03*
X240199Y208799D03*
X239499Y208399D03*
X237799Y215799D03*
X238399Y216799D03*
X239499Y215199D03*
X243099Y217999D03*
X243299Y219599D03*
X243399Y218699D03*
X239699Y220099D03*
X242570Y225929D03*
X250699Y179799D03*
Y176299D03*
X249499Y184499D03*
Y189499D03*
X250699Y194399D03*
X246199D03*
Y203299D03*
X250199Y205299D03*
X244949Y205449D03*
X244499Y210799D03*
X245299D03*
X248699Y211499D03*
X250499Y210399D03*
X249899Y209899D03*
X249299Y209299D03*
X247499Y206299D03*
X248699Y212899D03*
X247699Y210599D03*
X249399Y218699D03*
Y220299D03*
X250499Y215199D03*
X249899Y215699D03*
X249299Y217499D03*
X245399Y219199D03*
X245249Y215149D03*
X246249D03*
Y214149D03*
X245249D03*
X244249Y215149D03*
Y214149D03*
X245499Y217499D03*
X246799Y217999D03*
X244999Y218499D03*
X244979Y221999D03*
X248789D03*
X246249D03*
X248159Y221489D03*
X248789Y225929D03*
X252499Y194399D03*
X254000Y202999D03*
Y207999D03*
X254099Y214199D03*
X251899D03*
X253849Y221349D03*
X197699Y228499D03*
X231499Y228699D03*
X238799Y175099D03*
X242599Y182699D03*
X238199D03*
X237099D03*
X245249Y213149D03*
X246249D03*
X244249D03*
X262599Y197999D03*
X205699Y224299D03*
X243599Y196899D03*
X243999Y203799D03*
Y206799D03*
X243709Y221619D03*
X251199Y203299D03*
X205699Y228499D03*
G54D9508*
X211459Y215699D03*
X213999D03*
X211459Y210499D03*
X213999D03*
X211459Y205299D03*
X213999D03*
G54D9509*
X207899Y170399D03*
X209899D03*
X218899Y209599D03*
X216899D03*
X231140Y200409D03*
Y202949D03*
X194799Y177399D03*
Y174099D03*
X218899Y220599D03*
X216899D03*
X225599Y207699D03*
X223599D03*
X231140Y205489D03*
Y208029D03*
Y192789D03*
Y197869D03*
Y195329D03*
X218899Y215099D03*
X216899D03*
X202699Y172299D03*
Y169799D03*
X202999Y177399D03*
X197999Y174899D03*
X206099Y175499D03*
X208099D03*
X220079Y176899D03*
X227699D03*
X220079Y169279D03*
X222619D03*
X227699D03*
X225159Y176899D03*
Y169279D03*
X228499Y205799D03*
Y203259D03*
X226099Y200099D03*
Y197599D03*
X231140Y210569D03*
Y213109D03*
X224499Y225199D03*
X219419D03*
X224499Y228249D03*
X219419D03*
X229799Y220599D03*
X231799D03*
X222699Y184199D03*
X221199Y189199D03*
X228099Y190699D03*
Y183079D03*
X225559Y190699D03*
Y183079D03*
X215599Y176599D03*
X212299D03*
X215099Y172299D03*
Y169799D03*
X216899Y197999D03*
Y201499D03*
X216799Y225199D03*
X211719D03*
X216799Y228249D03*
X211719D03*
G54D9510*
X196219Y215699D03*
X203839D03*
X196219Y210499D03*
X203839D03*
X196219Y205299D03*
X203839D03*
G54D9511*
X203399Y192799D03*
X206099D03*
X214199D03*
X211499D03*
X208799D03*
X216899D03*
X205149Y180599D03*
X212149D03*
X208649D03*
X215649D03*
G54D9512*
X259999Y170499D03*
Y175499D03*
Y180499D03*
Y200499D03*
Y205499D03*
Y210499D03*
Y185499D03*
Y190500D03*
Y195499D03*
Y215499D03*
Y220499D03*
Y225499D03*
X187999Y175499D03*
Y170499D03*
Y205499D03*
Y200499D03*
Y195499D03*
Y190500D03*
Y225499D03*
Y220499D03*
Y215499D03*
Y210499D03*
Y185499D03*
Y180499D03*
G54D9513*
X198999Y222999D03*
X248999Y172999D03*
M02*